<svg width="50" height="50" viewBox="0 0 50 50" fill="none" xmlns="http://www.w3.org/2000/svg">
<g clip-path="url(#clip0_1_20)">
<path d="M25 49.95C38.7795 49.95 49.95 38.7795 49.95 25C49.95 11.2205 38.7795 0.0500031 25 0.0500031C11.2205 0.0500031 0.0499992 11.2205 0.0499992 25C0.0499992 38.7795 11.2205 49.95 25 49.95Z" fill="white"/>
<path d="M18.0416 36.1397C18.0417 36.4349 18.041 36.7293 18.0397 37.0226L18.0377 37.294L18.2653 37.4425C18.5619 37.637 18.8834 37.8304 19.2301 38.0167C19.9195 38.3871 20.7077 38.7295 21.5954 38.9942C22.096 39.1435 23.1625 39.4491 24.5641 39.5323L24.8209 39.547L24.8297 39.5352L25.3434 39.544L25.3522 39.545L25.361 39.544L25.6012 39.5401L25.611 39.5518L25.8639 39.5392C26.8923 39.4889 28.0371 39.2978 29.235 38.8624C29.9768 38.5928 30.6339 38.2678 31.2086 37.9249C31.4571 37.7767 31.6907 37.6248 31.9088 37.4727L32.1247 37.3224L32.1227 37.0597C32.1204 36.6794 32.1191 36.2971 32.1198 35.9122C32.1199 35.8503 32.1205 35.7884 32.1208 35.7267C32.4831 35.8337 32.8195 35.9424 33.1286 36.0479C34.4704 36.8583 35.8121 37.6683 37.154 38.4786L37.2399 38.5304L37.3395 38.545C39.5156 38.8626 41.433 39.3354 43.0065 40.047C42.0478 41.1929 40.9792 42.2494 39.8219 43.1935C38.4683 44.2977 36.9913 45.2503 35.4323 46.0255C33.8452 46.8146 32.1673 47.423 30.445 47.8321C28.9512 48.187 27.4141 48.3938 25.8659 48.4503C25.5768 48.4608 25.2879 48.4669 24.9997 48.4669L24.651 48.464L24.0485 48.4474C22.6449 48.3912 21.2504 48.211 19.8913 47.9093C18.2701 47.5494 16.6829 47.013 15.1745 46.3165C13.6931 45.6325 12.2766 44.7887 10.9655 43.8087C9.85429 42.9781 8.81344 42.0458 7.86391 41.0313C9.39997 40.1898 11.2344 39.5609 13.1461 39.0958L13.9127 38.9102L13.7213 38.672C14.7883 37.7771 15.8609 36.876 16.9264 35.9825C17.2665 35.8693 17.6385 35.755 18.0397 35.6417C18.0402 35.8073 18.0416 35.9733 18.0416 36.1397ZM16.6559 36.0265C16.6332 36.0291 16.6138 36.0325 16.5983 36.0313C16.584 36.0283 16.5683 36.0208 16.5514 36.0157C16.5784 36.02 16.6153 36.0255 16.6559 36.0265ZM16.4752 35.9913C16.4681 35.9885 16.4613 35.9876 16.4567 35.9854C16.4521 35.983 16.4467 35.9789 16.4411 35.9757C16.4497 35.98 16.462 35.9854 16.4752 35.9913ZM16.3834 35.9405C16.382 35.9395 16.3806 35.9384 16.3795 35.9376C16.3754 35.9344 16.3681 35.9285 16.3649 35.9259C16.3577 35.92 16.3517 35.9153 16.3483 35.9122C16.3446 35.9089 16.3417 35.9054 16.3395 35.9034C16.3373 35.9014 16.3351 35.8999 16.3336 35.8985C16.3326 35.8975 16.3316 35.8965 16.3307 35.8956C16.3319 35.8968 16.3339 35.8979 16.3356 35.8995C16.3369 35.9008 16.3385 35.9025 16.3405 35.9044C16.3425 35.9063 16.3459 35.9092 16.3493 35.9122C16.3525 35.915 16.3577 35.9198 16.3639 35.9249C16.3668 35.9272 16.3723 35.932 16.3756 35.9347C16.3774 35.936 16.3804 35.9383 16.3834 35.9405ZM17.1208 35.7198C17.097 35.7825 17.0689 35.8451 17.0348 35.8907C17.0231 35.8994 17.0083 35.9051 16.9948 35.9132L16.9801 35.8956C17.0336 35.8412 17.0843 35.7792 17.1208 35.7198ZM16.6803 35.5382L16.3141 35.878L16.318 35.8819L16.319 35.8839C16.3182 35.8831 16.3175 35.8824 16.317 35.8819C16.3161 35.8809 16.3156 35.8795 16.3151 35.879C16.3141 35.8779 16.3125 35.8774 16.3122 35.877L16.3112 35.8751C16.3108 35.8746 16.31 35.873 16.3092 35.8722L16.3083 35.8712L16.6803 35.5382ZM17.1774 35.4864C17.1776 35.4954 17.1748 35.5057 17.1735 35.5177C17.1716 35.4881 17.1682 35.4589 17.1647 35.4347C17.169 35.4531 17.1751 35.471 17.1774 35.4864ZM16.4137 35.9601C16.4104 35.958 16.4071 35.9566 16.4049 35.9552C16.4029 35.9538 16.4006 35.952 16.3981 35.9503C16.4019 35.9528 16.4077 35.9563 16.4137 35.9601Z" fill="#0D7377" stroke="#0D7377"/>
<path d="M33.6201 25.8388C33.6782 26.6894 33.7017 27.5604 33.6777 28.3622C33.6585 29.0066 33.6087 29.5978 33.5264 30.0927C33.4673 30.4477 33.392 30.733 33.3106 30.9482L33.0391 30.9657C32.9998 31.2261 32.928 31.4814 32.833 31.7274V31.0458L31.8994 32.6972C31.6572 33.1254 31.4623 33.5004 31.2197 33.8603C31.0521 34.1089 30.8698 34.3369 30.6514 34.5429C30.6325 34.5607 30.6113 34.5761 30.5918 34.5937L30.1436 34.4589C30.1302 34.4813 30.1176 34.501 30.0977 34.5331C29.8772 34.8876 29.6167 35.1948 29.2901 35.4911L29.3067 34.6728L28.3701 35.9657C28.1993 36.2016 28.0102 36.4366 27.7852 36.6503L27.6172 36.161L27.0498 36.8876C27.0342 36.9075 27.0088 36.9329 26.9688 36.9618C26.7588 37.1135 26.3622 37.2119 25.9375 37.2597C25.7397 37.2819 25.559 37.2905 25.4277 37.2939C25.3624 37.2955 25.3097 37.296 25.2744 37.2958C25.257 37.2957 25.2438 37.2959 25.2354 37.2958C25.2315 37.2957 25.2284 37.2949 25.2266 37.2948H25.1953C25.1935 37.2949 25.1899 37.2957 25.1856 37.2958C25.1769 37.296 25.1634 37.2957 25.1455 37.2958C25.1093 37.296 25.0553 37.2956 24.9883 37.2939C24.8536 37.2903 24.6685 37.2811 24.4668 37.2577C24.0316 37.2073 23.6363 37.1036 23.4375 36.9501C23.4056 36.9254 23.3843 36.9045 23.3711 36.8876L22.8037 36.161L22.6358 36.6493C22.4109 36.4358 22.2224 36.2012 22.0518 35.9657L21.1143 34.6728L21.1299 35.4911C20.7811 35.1747 20.5075 34.8451 20.2774 34.4589L19.8301 34.5937C19.778 34.5467 19.7259 34.5011 19.6777 34.4521C19.3939 34.163 19.1719 33.8351 18.9561 33.4677C18.8085 33.2165 18.6787 32.9733 18.5225 32.6972L17.5889 31.0458L17.5879 31.7274C17.493 31.4815 17.4221 31.2261 17.3828 30.9657L17.1094 30.9482C17.028 30.7331 16.9536 30.4475 16.8945 30.0927C16.8122 29.5978 16.7634 29.0066 16.7442 28.3622C16.7202 27.5604 16.7427 26.6894 16.8008 25.8388C17.0316 26.2893 17.2895 26.7179 17.5342 27.122C17.8272 27.6057 18.1609 28.1508 18.5869 28.6093C18.8404 28.8821 19.1337 29.1329 19.4815 29.328C19.8615 29.5412 20.5651 29.7892 21.3096 29.911C22.0401 30.0306 22.9349 30.0499 23.627 29.6786C24.0482 29.4527 24.2752 29.3542 24.3867 29.3134H26.0479C26.1483 29.345 26.3681 29.4338 26.7813 29.6718C27.4713 30.0692 28.3758 30.0463 29.1074 29.9228C29.8561 29.7963 30.5623 29.5396 30.9395 29.328C31.2874 29.1329 31.5804 28.8821 31.834 28.6093C32.2602 28.1506 32.5947 27.6059 32.8877 27.122C33.1324 26.7179 33.3893 26.2893 33.6201 25.8388ZM20.7139 6.03702C23.4563 5.21208 25.8384 5.39967 27.1563 5.6044C29.5792 5.98085 31.6519 6.32252 33.0801 8.01358C33.8105 8.87862 34.1874 9.88026 34.4375 10.9882L34.4434 11.0175L34.4541 11.0468C34.6191 11.5058 34.6966 12.0063 34.7207 12.5312L34.7227 12.5585L34.7266 12.5849C34.7435 12.6944 34.7605 12.8045 34.7774 12.9149C34.8776 13.5719 34.9205 14.3097 34.9385 14.8905C34.9474 15.1794 34.9499 15.4263 34.9502 15.6005C34.9503 15.6342 34.9503 15.6652 34.9502 15.6933L34.4707 15.5312L34.3418 16.0624C34.2424 16.4721 34.121 16.8764 33.9844 17.2753C33.8423 16.6917 33.7006 16.1079 33.5586 15.5243L33.4893 15.2382L33.2061 15.1601L32.711 15.0292L32.71 15.0282L32.6162 15.0048L32.0645 14.8651L32.0635 14.871C30.2265 14.4395 28.0402 14.0989 25.5772 14.0448L25.4307 14.0409L25.3057 14.1171C24.0091 14.9064 22.5997 15.4787 21.1416 15.7948C21.2267 15.6231 21.3024 15.4461 21.3633 15.2636L21.7529 14.0946L20.6592 14.661C19.2436 15.3938 18.0071 16.4812 17.0508 17.789L16.8633 18.0536C16.6418 18.376 16.4354 18.711 16.2481 19.0575C16.1879 19.1689 16.1306 19.281 16.0752 19.3925L16.0225 19.498L16.0235 19.6161C16.0238 19.8907 16.0235 20.1667 16.0235 20.4452C16.0235 21.4264 16.0391 22.3866 16.0918 23.3085C16.0975 23.4073 16.1058 23.5055 16.1123 23.6034C15.5077 23.234 15.0156 22.3924 15.0156 21.2948C15.0157 20.4816 15.2954 19.7796 15.7022 19.328L15.8721 19.1396L15.8203 18.8915C15.6338 17.9881 15.4936 17.0738 15.4014 16.1542L15.3389 15.5263L14.7852 15.7148C14.775 15.3777 14.7725 14.9458 14.794 14.4521L14.5742 14.414L14.7881 14.3944C14.7083 13.5707 14.8269 12.7363 15.1016 11.9462L15.1113 11.9189L15.1172 11.8896C15.4819 10.2347 16.201 8.56759 17.5615 7.47647L17.8418 7.26651C18.7501 6.63145 19.8108 6.30869 20.7139 6.03702ZM34.3985 19.0439C34.9617 19.4394 35.4062 20.2559 35.4063 21.2948C35.4063 22.3925 34.9134 23.2341 34.3086 23.6034C34.3152 23.5055 34.3235 23.4073 34.3291 23.3085C34.3818 22.3866 34.3975 21.4264 34.3975 20.4452C34.3975 20.0661 34.3983 19.6978 34.3985 19.3261C34.3985 19.2318 34.3986 19.1376 34.3985 19.0439Z" fill="#0D7377" stroke="#0D7377"/>
<mask id="path-4-inside-1_1_20" fill="white">
<path d="M25 0.4C38.5645 0.4 49.6 11.4355 49.6 25C49.6 38.5645 38.5645 49.6 25 49.6C11.4355 49.6 0.4 38.5645 0.4 25C0.4 11.4355 11.4355 0.4 25 0.4ZM25 0C11.1929 0 0 11.1929 0 25C0 38.8071 11.1929 50 25 50C38.8071 50 50 38.8071 50 25C50 11.1929 38.8071 0 25 0Z"/>
</mask>
<path d="M25 0.4C38.5645 0.4 49.6 11.4355 49.6 25C49.6 38.5645 38.5645 49.6 25 49.6C11.4355 49.6 0.4 38.5645 0.4 25C0.4 11.4355 11.4355 0.4 25 0.4ZM25 0C11.1929 0 0 11.1929 0 25C0 38.8071 11.1929 50 25 50C38.8071 50 50 38.8071 50 25C50 11.1929 38.8071 0 25 0Z" fill="#0D7377"/>
<path d="M25 0.4V1.4C38.0122 1.4 48.6 11.9878 48.6 25H49.6H50.6C50.6 10.8832 39.1168 -0.6 25 -0.6V0.4ZM49.6 25H48.6C48.6 38.0122 38.0122 48.6 25 48.6V49.6V50.6C39.1168 50.6 50.6 39.1168 50.6 25H49.6ZM25 49.6V48.6C11.9878 48.6 1.4 38.0122 1.4 25H0.4H-0.6C-0.6 39.1168 10.8832 50.6 25 50.6V49.6ZM0.4 25H1.4C1.4 11.9878 11.9878 1.4 25 1.4V0.4V-0.6C10.8832 -0.6 -0.6 10.8832 -0.6 25H0.4ZM25 0V-1C10.6406 -1 -1 10.6406 -1 25H0H1C1 11.7452 11.7452 1 25 1V0ZM0 25H-1C-1 39.3594 10.6406 51 25 51V50V49C11.7452 49 1 38.2548 1 25H0ZM25 50V51C39.3594 51 51 39.3594 51 25H50H49C49 38.2548 38.2548 49 25 49V50ZM50 25H51C51 10.6406 39.3594 -1 25 -1V0V1C38.2548 1 49 11.7452 49 25H50Z" fill="#0D7377" mask="url(#path-4-inside-1_1_20)"/>
</g>
<defs>
<clipPath id="clip0_1_20">
<rect width="50" height="50" fill="white"/>
</clipPath>
</defs>
</svg>
